<?xml version="1.0" standalone="no"?>
<!DOCTYPE svg PUBLIC "-//W3C//DTD SVG 20010904//EN"
 "http://www.w3.org/TR/2001/REC-SVG-20010904/DTD/svg10.dtd">
<svg version="1.0" xmlns="http://www.w3.org/2000/svg"
 width="512.000000pt" height="512.000000pt" viewBox="0 0 512.000000 512.000000"
 preserveAspectRatio="xMidYMid meet">
<metadata>
Created by potrace 1.14, written by Peter Selinger 2001-2017
</metadata>
<g transform="translate(0.000000,512.000000) scale(0.100000,-0.100000)"
fill="#000000" stroke="none">
<path d="M1128 3765 c-2 -1 -28 -6 -58 -9 -252 -29 -512 -158 -705 -350 -177
-176 -288 -385 -340 -636 -19 -89 -25 -271 -12 -350 4 -25 10 -63 13 -85 9
-58 71 -241 102 -300 141 -269 373 -485 631 -590 79 -33 213 -71 281 -81 66
-10 337 -12 400 -2 176 25 345 85 516 181 23 14 137 90 144 97 3 3 28 23 55
44 108 86 293 290 376 415 l15 24 49 -69 c92 -129 242 -288 365 -386 62 -49
158 -118 165 -118 2 0 28 -14 57 -31 122 -73 284 -129 438 -154 86 -13 360
-14 430 0 189 36 377 115 523 219 171 122 324 315 410 518 69 159 97 308 93
483 -5 183 -47 349 -129 510 -23 44 -45 85 -49 90 -4 6 -34 46 -66 90 -186
255 -493 436 -812 481 -86 13 -348 9 -425 -5 -373 -70 -715 -298 -978 -653
-40 -53 -74 -97 -77 -98 -3 0 -13 13 -23 29 -48 81 -251 307 -352 391 -212
177 -434 283 -700 335 -32 7 -331 15 -337 10z m238 -429 c33 -5 67 -11 109
-20 54 -12 179 -63 238 -98 140 -82 300 -224 397 -353 25 -33 47 -62 50 -65
16 -16 89 -134 122 -197 l22 -43 -24 -42 c-158 -289 -400 -536 -634 -648 -235
-111 -535 -116 -752 -11 -235 112 -392 309 -449 560 -14 64 -15 228 -1 281 3
14 8 34 10 46 8 42 69 175 105 231 129 197 351 336 574 359 34 3 63 7 64 8 4
3 135 -3 169 -8z m2624 -11 c213 -38 386 -148 513 -327 189 -264 192 -596 8
-867 -115 -169 -319 -306 -503 -336 -24 -4 -52 -9 -63 -11 -40 -8 -212 -4
-265 6 -274 52 -513 215 -734 500 -47 61 -166 252 -166 267 0 15 28 66 88 158
142 220 322 398 507 503 86 48 222 98 296 107 30 4 55 8 57 10 9 9 196 2 262
-10z"/>
<path d="M900 2556 l0 -124 375 0 c206 0 375 3 376 6 1 4 2 60 3 125 l1 117
-377 0 -378 0 0 -124z"/>
<path d="M3670 2805 l0 -130 -128 1 -128 1 0 -121 1 -121 85 -2 c47 0 104 -2
128 -2 l42 -1 0 -125 0 -126 123 3 122 3 0 117 c0 64 4 120 8 124 4 4 61 7
127 7 l120 -1 0 124 0 124 -130 0 -130 0 0 128 0 128 -120 -1 -120 0 0 -130z"/>
<path d="M4947 3700 c-45 -36 -59 -72 -44 -116 31 -94 155 -108 201 -22 38 70
-4 146 -86 155 -34 4 -49 0 -71 -17z m104 -15 c42 -16 49 -96 12 -137 -43 -48
-133 -3 -133 67 0 67 53 98 121 70z"/>
<path d="M4970 3616 c0 -30 5 -58 10 -61 6 -3 11 -1 11 4 1 6 2 17 3 23 2 23
33 20 39 -4 5 -18 9 -20 19 -10 10 10 10 17 0 32 -8 13 -9 20 -1 20 6 0 9 10
7 23 -2 18 -10 23 -45 25 l-43 3 0 -55z m58 17 c2 -8 -5 -13 -17 -13 -12 0
-21 6 -21 16 0 18 31 15 38 -3z"/>
</g>
</svg>
